# xmcd
# 
# Track frame offsets:
#     150
#     8083
#     25424
#     41077
#     55950
#     71715
#     87703
# 
# Disc length: 1365
# 
# Revision: 0
# Processed by: cddbd v1.5.2PL0 Copyright (c) Steve Scherf et al.
# Submitted via: fre:ac v1.0.17
# 
DISCID=5e055307
DTITLE=4MINUTE - VOLUME UP
DYEAR=2012
DGENRE=Kpop
TTITLE0=GET ON THE FLOOR
TTITLE1=VOLUME UP
TTITLE2=I'M OK
TTITLE3=SAY MY NAME
TTITLE4=FEMME FATALE
TTITLE5=DREAM RACER
TTITLE6=BLACK CAT
EXTD=
EXTT0=
EXTT1=
EXTT2=
EXTT3=
EXTT4=
EXTT5=
EXTT6=
PLAYORDER=
